<svg xmlns="http://www.w3.org/2000/svg" width="364" height="50" viewBox="0 0 364 50"><defs><style>.a{fill:#dd4b39;}.b,.c{fill:#fff;}.b{font-size:20px;font-family:SourceSansPro-SemiBold, Source Sans Pro;font-weight:600;}</style></defs><g transform="translate(-25 -667)"><rect class="a" width="364" height="50" rx="8" transform="translate(25 667)"/><text class="b" transform="translate(119 699)"><tspan x="0" y="0">Continue with Gmail</tspan></text><g transform="translate(34.357 680)"><path class="c" d="M23.016,12.742c-.479-.349-1.2-.875-1.211-1.077,0-.287.655-.937,1.182-1.459C24.2,9,25.862,7.353,25.862,5.072a4.5,4.5,0,0,0-2.411-4.058h2.411a.507.507,0,1,0,0-1.014H19.268a7.368,7.368,0,0,0-1.31.122c2.02-.4,4.141,1.4,4.759,4.091h0c.632,2.726-.517,5.323-2.562,5.8a2.9,2.9,0,0,1-.65.074c-1.837,0-3.635-1.725-4.2-4.159-.622-2.7.507-5.267,2.508-5.776a6.022,6.022,0,0,0-5.14,5.936c0,3.491,3.266,4.747,5.616,5.014a3.254,3.254,0,0,0,.049,3.136c-3.089.218-7.694,1.554-7.694,5.545a3.885,3.885,0,0,0,1.134,2.877c1.58,1.557,4.352,1.688,5.8,1.688h.675c.086,0,8.623-.151,8.623-5.579C26.877,15.555,24.554,13.863,23.016,12.742ZM19.268,23.332c-2.574,0-5.579-1.062-5.579-4.058S17.164,14.2,20.283,14.2a.507.507,0,0,1,.259.071c.441.262,4.306,2.625,4.306,5C24.848,21.7,21.963,23.332,19.268,23.332Z" transform="translate(0 0)"/><path class="c" d="M416.53,156.434a.507.507,0,0,1-.507-.507V149.84a.507.507,0,1,1,1.014,0v6.087A.507.507,0,0,1,416.53,156.434Z" transform="translate(-386.103 -142.232)"/><path class="c" d="M358.617,214.348H352.53a.507.507,0,1,1,0-1.014h6.087a.507.507,0,0,1,0,1.014Z" transform="translate(-325.146 -203.188)"/></g></g></svg>