<svg xmlns="http://www.w3.org/2000/svg" width="16.696" height="16" viewBox="0 0 16.696 16"><defs><style>.a{fill:#fff;}</style></defs><g transform="translate(0 -10.667)"><g transform="translate(0 17.624)"><path class="a" d="M1.739,224A1.742,1.742,0,0,0,0,225.739V231.3a1.742,1.742,0,0,0,1.739,1.739H3.826a1.727,1.727,0,0,0,1.043-.352V224Z" transform="translate(0 -224)"/></g><g transform="translate(5.565 10.667)"><path class="a" d="M181.8,20.232a1.543,1.543,0,0,0-.453-1.095,1.727,1.727,0,0,0,.445-1.328,1.8,1.8,0,0,0-1.814-1.577h-4.3a10,10,0,0,0,.554-2.783c0-1.509-1.282-2.783-2.087-2.783a2.188,2.188,0,0,0-1.261.424.35.35,0,0,0-.13.272v2.359l-2,4.34-.083.042V25.56a4.558,4.558,0,0,0,1.739.411h6.385a1.6,1.6,0,0,0,1.576-1.215,1.565,1.565,0,0,0-.126-1.045,1.558,1.558,0,0,0,.7-2.088A1.557,1.557,0,0,0,181.8,20.232Z" transform="translate(-170.667 -10.667)"/></g></g></svg>