<svg xmlns="http://www.w3.org/2000/svg" width="49.503" height="43.702" viewBox="0 0 49.503 43.702"><defs><style>.a{fill:#fff;}</style></defs><g transform="translate(0 -30)"><g transform="translate(0 30)"><path class="a" d="M36.354,30a11.72,11.72,0,0,0-7.32,2.53,16.674,16.674,0,0,0-4.283,5.15,16.673,16.673,0,0,0-4.283-5.15A11.72,11.72,0,0,0,13.149,30C5.653,30,0,36.132,0,44.263c0,8.784,7.053,14.794,17.729,23.893,1.813,1.545,3.868,3.3,6,5.164a1.548,1.548,0,0,0,2.037,0c2.136-1.868,4.191-3.619,6.005-5.165C42.451,59.057,49.5,53.047,49.5,44.263,49.5,36.132,43.85,30,36.354,30Z" transform="translate(0 -30)"/></g></g></svg>