<svg xmlns="http://www.w3.org/2000/svg" width="18.269" height="17.508" viewBox="0 0 18.269 17.508"><defs><style>.a{fill:#fff;}</style></defs><g transform="translate(0 0)"><path class="a" d="M8.75,17.612v3.53a.571.571,0,0,0,1.031.338l2.065-2.81Z" transform="translate(-2.089 -4.206)"/><path class="a" d="M18.029.106a.571.571,0,0,0-.6-.041L.307,9.009a.571.571,0,0,0,.079,1.047l4.761,1.627,10.14-8.67L7.441,12.466l7.98,2.727a.584.584,0,0,0,.184.03.57.57,0,0,0,.565-.486L18.263.655a.572.572,0,0,0-.234-.55Z" transform="translate(0 0)"/></g></svg>