<svg xmlns="http://www.w3.org/2000/svg" width="29.077" height="29.077" viewBox="0 0 29.077 29.077"><defs><style>.a{fill:#738388;}</style></defs><path class="a" d="M14.539,0A14.539,14.539,0,1,0,29.077,14.539,14.539,14.539,0,0,0,14.539,0Zm0,27A12.462,12.462,0,1,1,27,14.539,12.462,12.462,0,0,1,14.539,27Z"/><g transform="translate(7.269 10.385)"><circle class="a" cx="2.077" cy="2.077" r="2.077"/></g><g transform="translate(17.654 10.385)"><circle class="a" cx="2.077" cy="2.077" r="2.077"/></g><g transform="translate(10.356 17.631)"><path class="a" d="M178.349,290.167a1.038,1.038,0,0,0-1.453-.211c-.02.015-.039.03-.058.047h0a4.18,4.18,0,0,1-4.931,0,1.038,1.038,0,0,0-1.358,1.571q.028.024.058.047a6.2,6.2,0,0,0,7.531,0A1.038,1.038,0,0,0,178.349,290.167Z" transform="translate(-170.189 -289.75)"/></g></svg>